# xmcd
#
# Track frame offsets: 
#        150
#        30784
#        52267
#        73648
#        96501
#        113743
#        136699
#        158734
#        180560
#        201510
#        222341
#        244079
#        270174
#        291417
#        312536
#        326569
#
# Disc length: 4492 seconds
#
# Revision: 2
# Processed by: cddbd v1.4PL0 Copyright (c) Steve Scherf et al.
# Submitted via: ExactAudioCopy v0.90b4
#
DISCID=ee118a10
DTITLE=Daz Dillinger - Retaliation, Revenge and Get Back
DYEAR=1998
DGENRE=Rap
TTITLE0=Intro "Gang Meeting"/Gang Bangin Ass Criminal feat Tray Deee, 
TTITLE0=Soopafly, Bad Ass, Tha Gang, Kurupt Tha Kingpin and Technique
TTITLE1=It's Going Down feat Kurupt Tha Kingpin and Prince Ital Joe
TTITLE2=Playa Partners feat B-Legit
TTITLE3=It Might Sound Crazy feat Too Short
TTITLE4=Our Daily Bread feat Kurupt Tha Kingpin and Prince Ital Joe
TTITLE5=In California feat Lady "V"
TTITLE6=Initiated feat 2Pac, Kurupt Tha Kingpin and Outlawz
TTITLE7=Oh No feat Tray Deee and J-Money
TTITLE8=Retaliation, Revenge and Get Back
TTITLE9=O.G. feat Snoop Doggy Dogg and Nate Dogg
TTITLE10=Baby Mama Drama feat Big C-Style and "Lil" C-Style
TTITLE11=Only for U feat Big Pimpin and Lady "V"
TTITLE12=Ridin High feat WC
TTITLE13=The Ultimate Come Up feat MC Eiht and Bad Ass
TTITLE14=Thank God for My Life feat Soopafly, Tray Deee, Bad Ass and Big
TTITLE14=Pimpin
TTITLE15=Outro "Why Do We Bang"
EXTD=
EXTT0=
EXTT1=
EXTT2=
EXTT3=
EXTT4=
EXTT5=
EXTT6=
EXTT7=
EXTT8=
EXTT9=
EXTT10=
EXTT11=
EXTT12=
EXTT13=
EXTT14=
EXTT15=
PLAYORDER=
